<svg width="89" height="45" viewBox="0 0 89 45" fill="none" xmlns="http://www.w3.org/2000/svg">
<path d="M1 38.7918L50.2356 18.3607C45.2115 19.4771 10.9141 29.1587 9.03846 23.7997C6.69391 17.101 16.407 6.38307 20.7612 8.05775C25.1154 9.73243 28.1298 20.3703 32.484 30.7533C36.8381 41.1363 35.3867 44.6774 34.4936 43.8959V18.3607L39.1827 28.7437V18.0257L44.5417 26.3991L42.1971 16.0161L47.2211 20.7052C50.9054 24.3895 60.1497 18.7625 56.9343 15.0113C52.915 10.3222 46.2163 14.0065 41.1923 13.0017C36.1683 11.9969 44.5417 -9.24198 48.8958 6.5C52.3791 19.0936 57.7158 28.0423 60.6186 36.1924C59.1672 33.2896 55.5945 31.892 48.8958 29.7484C42.1971 27.6049 71.8947 10.5139 88.4182 4.7084" stroke="#2D2D2D" stroke-linecap="round"/>
<path d="M65.7376 5.25419C63.4208 6.89698 64.5792 9.12279 65.3515 7.95458C66.1237 6.78637 66.0594 5.6425 65.9307 5.21659L67.6683 7.04192C68.1188 5.27743 68.4019 1.96751 65.9307 2.84366C63.4595 3.71982 62.0694 6.53192 62.8416 8.86723C63.4208 10.3275 65.9307 11.6417 71.3365 5.21659" stroke="#2D2D2D" stroke-linecap="round"/>
</svg>
